<svg width="28" height="28" viewBox="0 0 28 28" fill="none" xmlns="http://www.w3.org/2000/svg">
<path d="M14 3.5C11.9233 3.5 9.89323 4.11581 8.16652 5.26957C6.4398 6.42332 5.09399 8.0632 4.29927 9.98182C3.50455 11.9004 3.29661 14.0116 3.70176 16.0484C4.1069 18.0852 5.10693 19.9562 6.57538 21.4246C8.04384 22.8931 9.91476 23.8931 11.9516 24.2982C13.9884 24.7034 16.0996 24.4955 18.0182 23.7007C19.9368 22.906 21.5767 21.5602 22.7304 19.8335C23.8842 18.1068 24.5 16.0767 24.5 14C24.5 13.4633 24.4533 12.9267 24.3833 12.4133C23.8004 13.2308 23.0301 13.8967 22.1371 14.3554C21.244 14.8141 20.254 15.0523 19.25 15.05C17.9144 15.05 16.6133 14.6258 15.5344 13.8386C14.4555 13.0514 13.6545 11.9418 13.247 10.6699C12.8394 9.39797 12.8464 8.0295 13.2669 6.76183C13.6875 5.49417 14.4998 4.39283 15.5867 3.61667C15.0733 3.54667 14.5367 3.5 14 3.5Z" fill="black" fill-opacity="0.6"/>
</svg>
