<svg width="24" height="24" viewBox="0 0 24 24" fill="none" xmlns="http://www.w3.org/2000/svg">
<path d="M8.25 12C8.25 10.9552 8.3085 9.9495 8.4165 9H15.5835C15.6915 9.9495 15.75 10.9552 15.75 12C15.75 13.0448 15.6915 14.0505 15.5835 15H8.4165C8.30455 14.0039 8.24897 13.0023 8.25 12ZM6.9075 15C6.80176 14.0035 6.74919 13.0021 6.75 12C6.75 10.9657 6.80475 9.96 6.9075 9H1.935C1.64568 9.9737 1.49915 10.9842 1.5 12C1.5 13.0425 1.65225 14.0498 1.935 15H6.9075ZM2.51025 16.5H7.11375C7.34925 17.895 7.692 19.1602 8.12175 20.2335C8.3985 20.925 8.7165 21.552 9.07575 22.0875C7.64903 21.6723 6.32638 20.9597 5.19478 19.9967C4.06318 19.0336 3.14828 17.842 2.51025 16.5ZM8.63625 16.5H15.3638C15.1463 17.7 14.8463 18.774 14.4863 19.6763C14.0993 20.6423 13.6583 21.3727 13.2068 21.8512C12.7568 22.3267 12.3488 22.5 12 22.5C11.6513 22.5 11.2433 22.3267 10.7933 21.8505C10.3418 21.3728 9.90075 20.6423 9.5145 19.6763C9.15375 18.774 8.85375 17.6992 8.63625 16.5ZM16.8863 16.5C16.6508 17.895 16.308 19.1602 15.8783 20.2335C15.6015 20.925 15.2835 21.552 14.9243 22.0875C16.351 21.6723 17.6736 20.9597 18.8052 19.9967C19.9368 19.0336 20.8517 17.842 21.4898 16.5H16.8863ZM22.065 15C22.3478 14.0498 22.5 13.0425 22.5 12C22.5 10.9575 22.3478 9.95025 22.065 9H17.0925C17.1953 9.96 17.25 10.9657 17.25 12C17.25 13.0343 17.1953 14.04 17.0925 15H22.065ZM14.4855 4.32375C14.8463 5.226 15.1463 6.30075 15.3638 7.5H8.63625C8.85375 6.3 9.15375 5.226 9.51375 4.32375C9.90075 3.35775 10.3418 2.6265 10.7933 2.14875C11.2418 1.6755 11.6483 1.5015 11.9963 1.5H12.0023C12.3503 1.5 12.7575 1.67475 13.2068 2.1495C13.6583 2.6265 14.0993 3.35775 14.4855 4.32375ZM16.8863 7.5H21.4898C20.8517 6.15804 19.9368 4.96635 18.8052 4.00332C17.6736 3.04028 16.351 2.32772 14.9243 1.9125C15.2835 2.448 15.6015 3.075 15.8783 3.7665C16.308 4.83975 16.6508 6.105 16.8863 7.5ZM2.51025 7.5H7.11375C7.34925 6.105 7.692 4.83975 8.12175 3.7665C8.3985 3.075 8.7165 2.448 9.07575 1.9125C7.64903 2.32772 6.32638 3.04028 5.19478 4.00332C4.06318 4.96635 3.14828 6.15804 2.51025 7.5Z" fill="black" fill-opacity="0.75"/>
</svg>
