<svg width="1280" height="720" viewBox="0 0 1280 720" fill="none" xmlns="http://www.w3.org/2000/svg">
<g clip-path="url(#clip0_62_2)">
<path fill-rule="evenodd" clip-rule="evenodd" d="M65.9119 396.094C59.7825 413.412 39.3918 418.85 26.0445 431.171C9.41093 446.526 -0.0306207 474.623 -21.8083 477.068C-43.4191 479.494 -59.3936 457.987 -74.5702 442.468C-88.3818 428.346 -103.389 412.789 -104.655 392.354C-105.858 372.948 -87.5197 358.527 -80.9178 340.035C-74.0659 320.843 -78.9546 297.517 -65.4275 282.477C-50.7022 266.105 -28.4272 258.811 -7.27204 258.152C14.7483 257.466 40.0324 260.982 53.2924 278.779C66.268 296.194 54.4425 321.986 56.8308 344.189C58.7626 362.147 72.0098 378.865 65.9119 396.094Z" fill="#F4F453" fill-opacity="0.5"/>
<path fill-rule="evenodd" clip-rule="evenodd" d="M38.6287 182.65C31.8324 171.305 25.2856 160.376 11.1319 159.119C-4.45273 157.735 -14.6963 168.613 -25.1609 179.725C-30.716 185.624 -36.3334 191.589 -42.8451 195.822C-49.0594 199.861 -56.1489 203.056 -63.1708 206.222C-76.0187 212.013 -88.6401 217.703 -95.2603 228.268C-106.241 245.793 -106.063 266.915 -99.2201 285.791C-94.736 298.16 -87.1502 309.815 -76.8061 319.436C-76.6989 318.498 -76.5948 317.561 -76.4908 316.625C-75.092 304.036 -73.7213 291.699 -65.4272 282.477C-50.702 266.105 -28.427 258.811 -7.2718 258.152C14.7485 257.466 40.0326 260.982 53.2926 278.779C61.509 289.807 59.781 304.193 58.0144 318.9C57.3334 324.57 56.6466 330.288 56.5217 335.879C62.8056 333.714 68.831 331.031 74.4984 327.742C93.1077 316.942 105.896 301.226 114.215 283.862C114.804 282.634 115.407 281.39 116.016 280.133C124.481 262.677 134.198 242.638 122.833 226.859C115.866 217.185 101.99 215.153 87.7268 213.063C76.8043 211.463 65.6545 209.83 57.2057 204.707C48.7815 199.598 43.6374 191.011 38.6287 182.65Z" fill="#4EF3F3" fill-opacity="0.5"/>
<rect x="248" y="811.46" width="1600" height="75" transform="rotate(-40 248 811.46)" fill="#4EF3F3" fill-opacity="0.4"/>
<rect x="296.209" y="868.914" width="1600" height="75" transform="rotate(-40 296.209 868.914)" fill="#F2F26A" fill-opacity="0.4"/>
<rect x="344.418" y="926.367" width="1600" height="75" transform="rotate(-40 344.418 926.367)" fill="#4EF3F3" fill-opacity="0.4"/>
<rect x="392.627" y="983.82" width="1600" height="75" transform="rotate(-40 392.627 983.82)" fill="#F2F26A" fill-opacity="0.4"/>
<rect x="440.836" y="1041.27" width="1600" height="75" transform="rotate(-40 440.836 1041.27)" fill="#4EF3F3" fill-opacity="0.4"/>
<rect x="489.045" y="1098.73" width="1600" height="75" transform="rotate(-40 489.045 1098.73)" fill="#F2F26A" fill-opacity="0.4"/>
<rect x="537.255" y="1156.18" width="1600" height="75" transform="rotate(-40 537.255 1156.18)" fill="#4EF3F3" fill-opacity="0.4"/>
<rect x="585.464" y="1213.63" width="1600" height="75" transform="rotate(-40 585.464 1213.63)" fill="#F2F26A" fill-opacity="0.4"/>
</g>
<defs>
<clipPath id="clip0_62_2">
<rect width="1280" height="720" fill="white"/>
</clipPath>
</defs>
</svg>
