<svg width="128" height="128" viewBox="0 0 128 128" fill="none" xmlns="http://www.w3.org/2000/svg">
<g clip-path="url(#clip0_2_31)">
<rect x="28.223" y="32.6589" width="28" height="95" rx="14" transform="rotate(-74.3677 28.223 32.6589)" fill="#22DBDB"/>
<rect x="12.3953" y="52.1136" width="28" height="97" rx="14" transform="rotate(-74.3677 12.3953 52.1136)" fill="#DBDB22"/>
<rect x="15.8278" y="76.9575" width="28" height="95" rx="14" transform="rotate(-74.3677 15.8278 76.9575)" fill="#22DBDB"/>
<rect y="96.4121" width="28" height="97" rx="14" transform="rotate(-74.3677 0 96.4121)" fill="#DBDB22"/>
<path d="M64.9032 97.104C58.8926 97.104 53.6792 95.54 49.2632 92.412C44.8472 89.284 41.7192 84.96 39.8792 79.44L51.1952 75.208C52.6059 78.2747 54.5379 80.728 56.9912 82.568C59.4446 84.408 62.2046 85.328 65.2712 85.328C68.4606 85.328 70.9752 84.6533 72.8152 83.304C74.7166 81.9547 75.6672 80.0227 75.6672 77.508C75.6672 76.22 75.3606 75.0853 74.7472 74.104C74.1339 73.1227 73.0912 72.2333 71.6192 71.436C70.1472 70.6387 68.8286 70.0253 67.6632 69.596C66.5592 69.1053 64.8726 68.492 62.6032 67.756C60.0272 66.8973 58.0646 66.2227 56.7152 65.732C55.4272 65.2413 53.7099 64.4133 51.5632 63.248C49.4166 62.0827 47.7912 60.9173 46.6872 59.752C45.5832 58.5253 44.5712 56.9307 43.6512 54.968C42.7926 52.944 42.3632 50.7053 42.3632 48.252C42.3632 43.2227 44.3259 39.0213 48.2512 35.648C52.1766 32.2133 57.4819 30.496 64.1672 30.496C69.6872 30.496 74.3179 31.876 78.0592 34.636C81.8619 37.396 84.3766 40.984 85.6032 45.4L74.4712 49.08C72.4472 44.5413 68.7672 42.272 63.4312 42.272C60.7326 42.272 58.6166 42.824 57.0832 43.928C55.6112 44.9707 54.8752 46.4733 54.8752 48.436C54.8752 49.724 55.4886 50.8893 56.7152 51.932C57.9419 52.9133 59.1992 53.68 60.4872 54.232C61.7752 54.7227 63.7992 55.428 66.5592 56.348C68.7059 57.084 70.3619 57.6667 71.5272 58.096C72.6926 58.5253 74.2872 59.2 76.3112 60.12C78.3352 61.04 79.8992 61.9907 81.0032 62.972C82.1686 63.9533 83.3646 65.1493 84.5912 66.56C85.8792 67.9093 86.7992 69.5347 87.3512 71.436C87.9032 73.276 88.1792 75.3 88.1792 77.508C88.1792 83.58 85.9712 88.364 81.5552 91.86C77.2006 95.356 71.6499 97.104 64.9032 97.104Z" fill="black"/>
</g>
<defs>
<clipPath id="clip0_2_31">
<rect width="128" height="128" fill="white"/>
</clipPath>
</defs>
</svg>
