<svg width="28" height="28" viewBox="0 0 28 28" fill="none" xmlns="http://www.w3.org/2000/svg">
<path d="M6.41671 17.5C7.43714 17.497 8.41897 17.1096 9.16654 16.415L16.4699 20.5882C16.2252 21.5444 16.333 22.5567 16.7737 23.4399C17.2144 24.3231 17.9585 25.018 18.8697 25.3974C19.7808 25.7768 20.7982 25.8154 21.7355 25.506C22.6728 25.1967 23.4673 24.5601 23.9736 23.7128C24.4799 22.8655 24.6641 21.8642 24.4925 20.8923C24.3208 19.9203 23.8049 19.0426 23.0391 18.4199C22.2732 17.7973 21.3088 17.4712 20.3222 17.5016C19.3357 17.5319 18.393 17.9165 17.6669 18.585L10.3635 14.4118C10.4405 14.1202 10.4825 13.818 10.4895 13.5158L17.6645 9.41499C18.3554 10.0436 19.2414 10.4154 20.174 10.4682C21.1065 10.5209 22.0288 10.2513 22.7862 9.70469C23.5435 9.15804 24.0898 8.36756 24.3335 7.46586C24.5771 6.56417 24.5032 5.60612 24.1242 4.75244C23.7452 3.89877 23.0841 3.20141 22.2519 2.77735C21.4197 2.35329 20.4669 2.22834 19.5535 2.42346C18.6401 2.61858 17.8216 3.12189 17.2353 3.84897C16.6489 4.57604 16.3305 5.48263 16.3334 6.41666C16.338 6.75266 16.3835 7.08749 16.4699 7.41182L9.83854 11.2C9.45398 10.6051 8.92127 10.1204 8.29273 9.79366C7.66419 9.46691 6.96146 9.30929 6.25358 9.3363C5.5457 9.36331 4.85702 9.57401 4.25521 9.9477C3.6534 10.3214 3.15916 10.8452 2.82105 11.4677C2.48294 12.0902 2.31259 12.79 2.32674 13.4982C2.3409 14.2065 2.53906 14.8989 2.90177 15.5074C3.26448 16.1159 3.77925 16.6195 4.39551 16.9689C5.01177 17.3183 5.70831 17.5013 6.41671 17.5Z" fill="black" fill-opacity="0.6"/>
</svg>
